<svg width="653" height="332" viewBox="0 0 653 332" fill="none" xmlns="http://www.w3.org/2000/svg">
<path d="M324.773 163.431C323.072 74.7005 252.489 2.65362 164.655 1.41782C74.9983 0.182028 1.37802 73.094 0.163167 164.172C-1.05169 255.374 70.6248 330.263 160.16 331.499C203.044 332.117 242.406 315.681 271.805 288.37C281.888 313.209 300.719 330.387 322.708 331.499H324.894L324.773 163.431ZM160.889 268.72C104.762 267.979 59.9341 221.019 60.7845 163.925C61.6349 106.831 107.678 61.2303 163.804 62.0954C219.931 62.9605 264.759 109.797 263.909 166.891C263.18 223.985 217.015 269.586 160.889 268.72Z" fill="#1E252C"/>
<path d="M604.433 228.927L604.311 228.062C585.481 252.531 555.96 268.102 522.916 267.608C466.79 266.866 421.961 219.906 422.812 162.812C423.541 105.718 469.705 60.1176 525.832 60.9827C550.372 61.3534 572.725 70.4983 590.097 85.4514L628.365 38.4912C600.788 15.011 565.436 0.675814 526.682 0.181496C437.026 -1.0543 363.405 71.8577 362.19 162.936C360.976 254.138 432.652 329.027 522.187 330.263C575.033 331.004 622.291 306.041 652.42 266.743L604.433 228.927Z" fill="#1E252C"/>
</svg>
