<svg width="489" height="88" viewBox="0 0 489 88" fill="none" xmlns="http://www.w3.org/2000/svg">
<g clip-path="url(#clip0)">
<path fill-rule="evenodd" clip-rule="evenodd" d="M91.5405 49.0347H14.6017C9.29021 49.0347 4.98438 53.8842 4.98438 59.8664C4.98438 65.8487 9.29021 70.6982 14.6017 70.6982H91.5405V65.2823C91.5362 65.2823 91.532 65.2823 91.5275 65.2823C89.1066 65.2823 87.1442 62.8575 87.1442 59.8664C87.1442 56.8753 89.1066 54.4506 91.5275 54.4506C91.532 54.4506 91.5362 54.4506 91.5405 54.4506V49.0347Z" fill="black"/>
<path fill-rule="evenodd" clip-rule="evenodd" d="M83.9592 54.4507H53.6891C51.0215 54.4507 48.8594 56.8755 48.8594 59.8666C48.8594 62.8577 51.0215 65.2825 53.6891 65.2825H83.9592C83.1371 63.6891 82.6668 61.8395 82.6668 59.8666C82.6668 57.8937 83.1371 56.044 83.9592 54.4507Z" fill="white"/>
<path fill-rule="evenodd" clip-rule="evenodd" d="M44.4709 54.4507H14.2008C11.5334 54.4507 9.37109 56.8755 9.37109 59.8666C9.37109 62.8577 11.5334 65.2825 14.2008 65.2825H44.4709C43.6488 63.6891 43.1785 61.8395 43.1785 59.8666C43.1785 57.8937 43.6488 56.044 44.4709 54.4507Z" fill="#FFD401"/>
<path fill-rule="evenodd" clip-rule="evenodd" d="M9.37109 23.5791H87.7763C93.189 23.5791 97.5769 29.2775 97.5769 36.3069C97.5769 43.3361 93.189 49.0347 87.7763 49.0347H9.37109V42.6708C9.37545 42.6708 9.3798 42.6708 9.38415 42.6708C11.8512 42.6708 13.8512 39.8215 13.8512 36.3069C13.8512 32.7923 11.8512 29.943 9.38415 29.943C9.3798 29.943 9.37545 29.943 9.37109 29.943V23.5791Z" fill="black"/>
<path fill-rule="evenodd" clip-rule="evenodd" d="M17.9375 29.9431H48.0615C50.7161 29.9431 52.8681 32.7924 52.8681 36.307C52.8681 39.8216 50.7161 42.6709 48.0615 42.6709H17.9375C18.7554 40.7988 19.2235 38.6254 19.2235 36.307C19.2235 33.9886 18.7554 31.8152 17.9375 29.9431Z" fill="white"/>
<path fill-rule="evenodd" clip-rule="evenodd" d="M57.3359 29.9431H86.8324C89.4315 29.9431 91.5386 32.7924 91.5386 36.307C91.5386 39.8216 89.4315 42.6709 86.8324 42.6709H57.3359C58.1369 40.7988 58.595 38.6254 58.595 36.307C58.595 33.9886 58.1369 31.8152 57.3359 29.9431Z" fill="#0194FF"/>
<path fill-rule="evenodd" clip-rule="evenodd" d="M20.918 23.5792H85.0958C89.5265 23.5792 93.1182 18.7925 93.1182 12.8879C93.1182 6.98317 89.5265 2.19647 85.0958 2.19647H20.918V7.54217C20.9215 7.54217 20.9251 7.54217 20.9286 7.54217C22.9481 7.54217 24.5851 9.93547 24.5851 12.8879C24.5851 15.8402 22.9481 18.2335 20.9286 18.2335C20.9251 18.2335 20.9215 18.2335 20.918 18.2335V23.5792Z" fill="black"/>
<path fill-rule="evenodd" clip-rule="evenodd" d="M27.5547 18.2333H52.5373C54.7387 18.2333 56.5232 15.84 56.5232 12.8877C56.5232 9.93529 54.7387 7.54199 52.5373 7.54199H27.5547C28.233 9.11449 28.6212 10.9403 28.6212 12.8877C28.6212 14.835 28.233 16.6608 27.5547 18.2333Z" fill="white"/>
<path fill-rule="evenodd" clip-rule="evenodd" d="M60.1816 18.2333H84.1074C86.2159 18.2333 87.9249 15.84 87.9249 12.8877C87.9249 9.93529 86.2159 7.54199 84.1074 7.54199H60.1816C60.8313 9.11449 61.203 10.9403 61.203 12.8877C61.203 14.835 60.8313 16.6608 60.1816 18.2333Z" fill="#FF0101"/>
<path d="M136.641 16.9141C135.141 16.9141 133.617 17.0547 132.07 17.3359C130.57 17.6172 129.07 17.9453 127.57 18.3203C126.07 18.6484 124.57 18.9531 123.07 19.2344C121.57 19.5156 120.047 19.6562 118.5 19.6562C118.031 19.6562 117.539 19.6094 117.023 19.5156C116.555 19.375 116.32 18.9531 116.32 18.25C116.32 17.7812 116.508 17.3125 116.883 16.8438C117.305 16.3281 117.75 16.0469 118.219 16L137.063 13.2578C137.109 13.0703 137.18 12.7891 137.273 12.4141C137.367 11.9922 137.484 11.5938 137.625 11.2188C137.813 10.7969 138.047 10.4453 138.328 10.1641C138.609 9.83591 138.938 9.67192 139.313 9.67192C139.875 9.67192 140.32 9.81251 140.648 10.0938C140.977 10.375 141.258 10.7031 141.492 11.0781C141.727 11.4062 141.938 11.7109 142.125 11.9922C142.313 12.2734 142.547 12.4141 142.828 12.4141H143.391C143.859 12.3672 144.609 12.2969 145.641 12.2031C146.672 12.0625 147.844 11.9219 149.156 11.7812C150.516 11.6406 151.945 11.5 153.445 11.3594C154.945 11.1719 156.375 11.0312 157.734 10.9375C159.094 10.7969 160.289 10.6797 161.32 10.5859C162.352 10.4453 163.102 10.3281 163.57 10.2344C163.711 10.2344 164.039 10.2344 164.555 10.2344C165.117 10.1875 165.516 10.1641 165.75 10.1641C165.75 11.0547 165.258 11.8047 164.273 12.4141C163.336 12.9766 162.117 13.4688 160.617 13.8906C159.164 14.2656 157.523 14.5703 155.695 14.8047C153.914 14.9922 152.156 15.1562 150.422 15.2969C148.734 15.4375 147.164 15.5547 145.711 15.6484C144.305 15.7422 143.227 15.8594 142.477 16C142.289 19.3281 142.359 22.7969 142.688 26.4062C143.063 30.0156 143.508 33.6484 144.023 37.3047C144.586 40.9609 145.102 44.5938 145.57 48.2031C146.039 51.8125 146.273 55.2578 146.273 58.5391C146.461 59.1953 146.531 59.7109 146.484 60.0859C146.484 60.4609 146.367 60.7188 146.133 60.8594C145.898 61 145.547 61.0703 145.078 61.0703C144.609 61.0703 144.047 61.0469 143.391 61C142.922 59.3125 142.5 57.3438 142.125 55.0938C141.797 52.7969 141.492 50.3594 141.211 47.7812C140.93 45.1562 140.648 42.4609 140.367 39.6953C140.133 36.9297 139.898 34.1875 139.664 31.4688C139.43 28.75 139.172 26.1484 138.891 23.6641C138.609 21.1797 138.281 18.9297 137.906 16.9141H136.641ZM178.055 52.8438C177.867 53.4062 177.398 54.1797 176.648 55.1641C175.945 56.1016 175.102 57.0625 174.117 58.0469C173.133 58.9844 172.102 59.8281 171.023 60.5781C169.992 61.2812 169.078 61.6328 168.281 61.6328C166.781 61.6328 165.539 60.9297 164.555 59.5234C163.617 58.1172 162.891 56.3125 162.375 54.1094C161.859 51.9062 161.508 49.4688 161.32 46.7969C161.133 44.0781 161.016 41.4297 160.969 38.8516C160.922 36.2734 160.898 33.9297 160.898 31.8203C160.898 29.7109 160.828 28.1172 160.688 27.0391C160.875 26.5703 161.109 26.2891 161.391 26.1953C161.719 26.1016 162.094 26.0547 162.516 26.0547C162.891 26.0547 163.219 26.1016 163.5 26.1953C163.828 26.2891 164.109 26.5703 164.344 27.0391C164.344 27.5547 164.344 28.4219 164.344 29.6406C164.391 30.8594 164.461 32.2422 164.555 33.7891C164.648 35.2891 164.742 36.8828 164.836 38.5703C164.93 40.2109 165 41.7812 165.047 43.2812C165.141 44.7812 165.211 46.1406 165.258 47.3594C165.352 48.5312 165.422 49.3984 165.469 49.9609C165.516 50.2891 165.563 50.8281 165.609 51.5781C165.703 52.3281 165.82 53.125 165.961 53.9688C166.148 54.7656 166.359 55.4922 166.594 56.1484C166.875 56.8047 167.227 57.1562 167.648 57.2031C168.352 57.2031 169.055 56.8984 169.758 56.2891C170.508 55.6797 171.234 54.9062 171.938 53.9688C172.641 53.0312 173.297 52 173.906 50.875C174.516 49.75 175.055 48.6719 175.523 47.6406C176.039 46.5625 176.414 45.6016 176.648 44.7578C176.93 43.9141 177.094 43.3047 177.141 42.9297C177.234 42.1328 177.328 41.0078 177.422 39.5547C177.516 38.0547 177.586 36.4609 177.633 34.7734C177.68 33.0859 177.703 31.4922 177.703 29.9922C177.75 28.4922 177.773 27.3438 177.773 26.5469L181.641 26.7578C181.688 30.5547 181.664 34 181.57 37.0938C181.477 40.1406 181.453 43.0234 181.5 45.7422C181.547 48.4141 181.758 51.0156 182.133 53.5469C182.508 56.0781 183.187 58.7031 184.172 61.4219C184.031 61.5625 183.75 61.75 183.328 61.9844C182.906 62.2656 182.602 62.4062 182.414 62.4062C181.242 62.4062 180.445 62.0078 180.023 61.2109C179.648 60.4609 179.391 59.5703 179.25 58.5391C179.156 57.4609 179.063 56.4062 178.969 55.375C178.922 54.2969 178.617 53.4531 178.055 52.8438ZM171.586 18.7422C170.32 18.4609 169.617 17.9688 169.477 17.2656C169.383 16.5625 169.641 15.7656 170.25 14.875C170.859 13.9375 171.703 12.9531 172.781 11.9219C173.859 10.8438 174.938 9.81251 176.016 8.82811C176.813 8.82811 177.352 9.03911 177.633 9.46091C177.914 9.88281 178.055 10.375 178.055 10.9375V11.4297C177.961 11.9922 177.68 12.6016 177.211 13.2578C176.742 13.9141 176.18 14.5703 175.523 15.2266C174.867 15.8828 174.164 16.5156 173.414 17.125C172.711 17.7344 172.102 18.2734 171.586 18.7422ZM189.586 57.4141C189.914 55.2578 190.125 52.5625 190.219 49.3281C190.359 46.0938 190.406 42.6484 190.359 38.9922C190.359 35.3359 190.289 31.5625 190.148 27.6719C190.008 23.7812 189.82 20.1016 189.586 16.6328C189.352 13.1172 189.07 9.97661 188.742 7.21091C188.461 4.44531 188.156 2.26561 187.828 0.671913C188.25 0.390613 188.602 0.179714 188.883 0.039114C189.211 -0.148386 189.586 -0.242188 190.008 -0.242188C190.336 -0.242188 190.617 -0.171887 190.852 -0.0311871C191.086 0.0625129 191.273 0.296913 191.414 0.671913C192.352 9.85941 192.984 19.1172 193.312 28.4453C193.688 37.7734 193.969 47.0547 194.156 56.2891C194.156 56.7109 194.156 57.2969 194.156 58.0469C194.156 58.75 194.133 59.125 194.086 59.1719C193.43 59.5 192.844 59.6641 192.328 59.6641C191.813 59.6172 191.344 59.4766 190.922 59.2422C190.5 58.9609 190.172 58.6562 189.938 58.3281C189.703 58 189.586 57.6953 189.586 57.4141ZM217.992 59.1719C217.758 57.9531 217.547 56.5 217.359 54.8125C217.219 53.0781 217.055 51.3438 216.867 49.6094C216.68 47.8281 216.445 46.1641 216.164 44.6172C215.93 43.0703 215.555 41.8047 215.039 40.8203C212.648 45.6953 210.539 49.5391 208.711 52.3516C206.883 55.1172 205.266 57.1094 203.859 58.3281C202.5 59.5 201.352 60.0625 200.414 60.0156C199.477 59.9688 198.703 59.5469 198.094 58.75C197.484 57.9531 197.039 56.9453 196.758 55.7266C196.523 54.4609 196.359 53.2891 196.266 52.2109C196.266 51.1797 196.5 49.7266 196.969 47.8516C197.438 45.9766 198.07 43.9375 198.867 41.7344C199.664 39.4844 200.602 37.2109 201.68 34.9141C202.805 32.6172 204 30.5312 205.266 28.6562C206.531 26.7812 207.844 25.2344 209.203 24.0156C210.563 22.7969 211.922 22.1875 213.281 22.1875C215.297 21.8594 216.773 22.3047 217.711 23.5234C218.695 24.6953 218.883 26.6875 218.273 29.5C218.273 32.5938 218.391 35.2422 218.625 37.4453C218.906 39.6484 219.188 41.7578 219.469 43.7734C219.797 45.7891 220.078 47.8984 220.312 50.1016C220.594 52.3047 220.734 54.9531 220.734 58.0469C220.734 58.6094 220.664 59.1016 220.523 59.5234C220.43 59.8984 219.867 60.0859 218.836 60.0859C218.695 60.0859 218.508 59.9688 218.273 59.7344C218.086 59.5 217.992 59.3125 217.992 59.1719ZM214.195 27.7422C213.68 26.9922 212.977 26.9219 212.086 27.5312C211.195 28.1406 210.258 29.1484 209.273 30.5547C208.289 31.9609 207.281 33.6484 206.25 35.6172C205.219 37.5859 204.258 39.5781 203.367 41.5938C202.477 43.6094 201.703 45.5312 201.047 47.3594C200.391 49.1406 199.945 50.6172 199.711 51.7891C199.711 53.4766 199.969 54.4375 200.484 54.6719C201 54.8594 201.633 54.5781 202.383 53.8281C203.133 53.0781 203.977 52 204.914 50.5938C205.898 49.1875 206.836 47.6875 207.727 46.0938C208.664 44.5 209.531 42.9531 210.328 41.4531C211.172 39.9531 211.828 38.7344 212.297 37.7969C212.719 36.8125 213.047 35.8984 213.281 35.0547C213.516 34.2109 213.703 33.4141 213.844 32.6641C214.031 31.8672 214.125 31.0703 214.125 30.2734C214.172 29.4766 214.195 28.6328 214.195 27.7422ZM223.477 32.2422C223.477 32.1953 223.453 32.125 223.406 32.0312C223.406 31.8906 223.406 31.7969 223.406 31.75C223.406 31.0469 223.688 30.6484 224.25 30.5547C224.812 30.4141 225.328 30.3438 225.797 30.3438C226.312 30.3438 226.898 30.7891 227.555 31.6797C228.211 32.5234 228.938 33.6719 229.734 35.125C230.578 36.5312 231.422 38.0781 232.266 39.7656C233.156 41.4531 234.047 43.1172 234.938 44.7578C235.875 46.3516 236.812 47.8047 237.75 49.1172C238.734 50.4297 239.672 51.3906 240.562 52C240.844 47.7344 241.055 44.1016 241.195 41.1016C241.336 38.1016 241.43 35.5703 241.477 33.5078C241.57 31.4453 241.617 29.8281 241.617 28.6562C241.617 27.4375 241.594 26.5 241.547 25.8438C241.547 25.1875 241.523 24.7656 241.477 24.5781C241.477 24.3438 241.477 24.1797 241.477 24.0859C241.477 23.2422 241.617 22.7266 241.898 22.5391C242.227 22.3516 242.648 22.2578 243.164 22.2578C243.773 22.2578 244.406 22.3516 245.062 22.5391C245.719 22.7266 246.047 23.1953 246.047 23.9453C246.188 26.9922 246.188 30.0859 246.047 33.2266C245.953 36.3203 245.789 39.4141 245.555 42.5078C245.32 45.5547 245.133 48.5547 244.992 51.5078C244.852 54.4609 244.852 57.3203 244.992 60.0859C244.898 60.1797 244.688 60.2969 244.359 60.4375C244.031 60.5312 243.68 60.625 243.305 60.7188C242.93 60.8125 242.555 60.8828 242.18 60.9297C241.852 60.9766 241.617 61 241.477 61C241.008 60.9062 240.281 60.2734 239.297 59.1016C238.312 57.8828 237.211 56.3594 235.992 54.5312C234.773 52.7031 233.508 50.6641 232.195 48.4141C230.883 46.1641 229.617 43.9844 228.398 41.875C227.227 39.7656 226.195 37.8438 225.305 36.1094C224.414 34.375 223.805 33.0859 223.477 32.2422ZM251.953 45.8125C251.719 45.8594 251.367 45.9297 250.898 46.0234C250.43 46.1172 249.938 46.1406 249.422 46.0938C248.906 46.0469 248.461 45.9062 248.086 45.6719C247.664 45.4375 247.453 45.0391 247.453 44.4766C247.453 44.1484 247.523 43.9141 247.664 43.7734C247.805 43.6328 248.039 43.4219 248.367 43.1406C249.398 42.2969 250.266 41.2188 250.969 39.9062C251.719 38.5469 252.398 37.1172 253.008 35.6172C253.617 34.0703 254.25 32.5469 254.906 31.0469C255.609 29.5 256.406 28.1172 257.297 26.8984C258.188 25.6797 259.289 24.6953 260.602 23.9453C261.914 23.1953 263.531 22.8438 265.453 22.8906C266.25 22.8906 267.141 23.0781 268.125 23.4531C269.109 23.8281 270.023 24.3438 270.867 25C271.711 25.6094 272.414 26.3594 272.977 27.25C273.539 28.1406 273.82 29.125 273.82 30.2031C274.055 30.5781 273.82 31.1172 273.117 31.8203C272.461 32.5234 271.547 33.2969 270.375 34.1406C269.203 34.9375 267.867 35.7812 266.367 36.6719C264.914 37.5156 263.508 38.3125 262.148 39.0625C260.789 39.8125 259.594 40.4688 258.562 41.0312C257.531 41.5938 256.852 42.0156 256.523 42.2969C256.289 42.7656 256.102 43.3047 255.961 43.9141C255.82 44.5234 255.703 45.1094 255.609 45.6719C255.562 46.1875 255.516 46.6797 255.469 47.1484C255.469 47.5703 255.469 47.8984 255.469 48.1328C255.469 49.0234 255.422 50.0078 255.328 51.0859C255.281 52.1641 255.328 53.1953 255.469 54.1797C255.656 55.1172 256.055 55.9141 256.664 56.5703C257.273 57.1797 258.305 57.4844 259.758 57.4844C261.305 57.4844 262.758 57.1094 264.117 56.3594C265.477 55.5625 266.742 54.6016 267.914 53.4766C269.086 52.3516 270.141 51.1328 271.078 49.8203C272.062 48.5078 272.93 47.2891 273.68 46.1641C274.477 44.9922 275.18 44.0312 275.789 43.2812C276.398 42.5312 276.914 42.1562 277.336 42.1562C277.805 42.1562 278.297 42.25 278.812 42.4375C279.375 42.5781 279.656 42.9531 279.656 43.5625C279.656 44.4062 279.305 45.4141 278.602 46.5859C277.945 47.7578 277.055 49 275.93 50.3125C274.852 51.625 273.586 52.9375 272.133 54.25C270.727 55.5156 269.297 56.6641 267.844 57.6953C266.391 58.6797 264.961 59.5 263.555 60.1562C262.148 60.7656 260.906 61.0703 259.828 61.0703C257.719 61.0703 256.125 60.5547 255.047 59.5234C253.969 58.4922 253.195 57.2031 252.727 55.6562C252.305 54.1094 252.07 52.4688 252.023 50.7344C252.023 48.9531 252 47.3125 251.953 45.8125ZM264.891 26.8281C264.094 26.8281 263.25 27.2266 262.359 28.0234C261.469 28.7734 260.625 29.7109 259.828 30.8359C259.078 31.9141 258.445 33.0391 257.93 34.2109C257.461 35.3359 257.227 36.2734 257.227 37.0234C257.93 37.0234 258.938 36.7656 260.25 36.25C261.609 35.6875 262.945 35.0078 264.258 34.2109C265.57 33.4141 266.719 32.5703 267.703 31.6797C268.688 30.7891 269.18 29.9453 269.18 29.1484C269.18 28.7266 269.016 28.375 268.688 28.0938C268.359 27.8125 267.961 27.5781 267.492 27.3906C267.07 27.2031 266.625 27.0625 266.156 26.9688C265.688 26.875 265.266 26.8281 264.891 26.8281ZM263.977 18.7422C262.711 18.4609 262.008 17.9688 261.867 17.2656C261.773 16.5625 262.031 15.7656 262.641 14.875C263.25 13.9375 264.094 12.9531 265.172 11.9219C266.25 10.8438 267.328 9.81251 268.406 8.82811C269.203 8.82811 269.742 9.03911 270.023 9.46091C270.305 9.88281 270.445 10.375 270.445 10.9375V11.4297C270.352 11.9922 270.07 12.6016 269.602 13.2578C269.133 13.9141 268.57 14.5703 267.914 15.2266C267.258 15.8828 266.555 16.5156 265.805 17.125C265.102 17.7344 264.492 18.2734 263.977 18.7422ZM317.625 7.00001C318.609 6.06251 319.383 5.68751 319.945 5.87501C320.555 6.06251 321 6.69531 321.281 7.77341C321.562 8.85161 321.727 10.2578 321.773 11.9922C321.82 13.7266 321.797 15.6953 321.703 17.8984C321.656 20.0547 321.539 22.3516 321.352 24.7891C321.164 27.1797 321 29.5469 320.859 31.8906C320.719 34.1875 320.625 36.3906 320.578 38.5C320.531 40.6094 320.602 42.4375 320.789 43.9844H321C321.094 43.9844 321.164 43.9609 321.211 43.9141C323.648 41.4766 325.828 38.8984 327.75 36.1797C329.672 33.4609 331.406 30.9062 332.953 28.5156C334.5 26.0781 335.859 23.9688 337.031 22.1875C338.25 20.4062 339.375 19.1875 340.406 18.5312C341.109 18.5312 341.695 18.6484 342.164 18.8828C342.68 19.1172 342.938 19.6562 342.938 20.5C342.938 20.5938 342.914 20.7578 342.867 20.9922C342.867 21.1797 342.867 21.3203 342.867 21.4141C341.695 23.8047 340.406 26.2188 339 28.6562C337.594 31.0469 336.07 33.3672 334.43 35.6172C332.789 37.8672 331.008 40 329.086 42.0156C327.211 44.0312 325.172 45.8594 322.969 47.5C322.969 47.5469 322.945 47.6406 322.898 47.7812C322.898 47.875 322.898 47.9453 322.898 47.9922C322.898 48.4609 323.273 48.9766 324.023 49.5391C324.82 50.1016 325.805 50.6406 326.977 51.1562C328.195 51.6719 329.531 52.1875 330.984 52.7031C332.484 53.2188 333.938 53.6641 335.344 54.0391C336.797 54.4141 338.133 54.7188 339.352 54.9531C340.617 55.1875 341.602 55.3047 342.305 55.3047C342.305 55.4922 342.305 55.8438 342.305 56.3594C342.352 56.875 342.328 57.4141 342.234 57.9766C342.141 58.5391 341.977 59.0547 341.742 59.5234C341.508 59.9453 341.133 60.1562 340.617 60.1562H340.336C340.242 60.1562 340.172 60.1328 340.125 60.0859L320.016 52C319.969 54.7656 319.781 57.0156 319.453 58.75C319.125 60.4375 318.727 61.6797 318.258 62.4766C317.836 63.3203 317.367 63.7188 316.852 63.6719C316.383 63.625 315.961 63.25 315.586 62.5469L317.625 7.00001ZM349.406 60.0859C348.891 53.7578 348.422 47.4297 348 41.1016C347.625 34.7266 347.203 28.1172 346.734 21.2734C346.734 20.1484 347.344 19.5859 348.562 19.5859H349.125C349.266 19.5859 349.43 19.7734 349.617 20.1484C349.805 20.5234 349.992 21.2266 350.18 22.2578C350.414 23.2422 350.648 24.7656 350.883 26.8281C351.164 28.8438 351.492 31.4922 351.867 34.7734C352.242 38.0547 352.664 42.1562 353.133 47.0781C354.117 43.8906 354.891 40.7969 355.453 37.7969C356.016 34.7969 356.742 32.0781 357.633 29.6406C358.523 27.1562 359.766 24.9766 361.359 23.1016C363 21.2266 365.344 19.8438 368.391 18.9531C370.078 19.2344 371.438 20.2656 372.469 22.0469C373.5 23.7812 374.32 25.9375 374.93 28.5156C375.539 31.0938 375.961 33.9062 376.195 36.9531C376.43 39.9531 376.57 42.8359 376.617 45.6016C376.664 48.3672 376.688 50.8516 376.688 53.0547C376.688 55.2109 376.734 56.7578 376.828 57.6953C376.688 58.0703 376.477 58.3984 376.195 58.6797C375.914 58.9609 375.586 59.1719 375.211 59.3125C374.883 59.4062 374.555 59.4297 374.227 59.3828C373.898 59.2891 373.594 59.0312 373.312 58.6094C373.312 58.0938 373.266 57.0391 373.172 55.4453C373.078 53.8516 372.961 52 372.82 49.8906C372.68 47.7344 372.516 45.4609 372.328 43.0703C372.188 40.6328 372.047 38.3594 371.906 36.25C371.812 34.0938 371.719 32.2188 371.625 30.625C371.531 29.0312 371.461 27.9766 371.414 27.4609C370.43 25.7266 369.445 24.7422 368.461 24.5078C367.523 24.2734 366.562 24.5781 365.578 25.4219C364.641 26.2656 363.727 27.5547 362.836 29.2891C361.945 31.0234 361.102 32.9922 360.305 35.1953C359.508 37.3516 358.758 39.625 358.055 42.0156C357.352 44.4062 356.742 46.7266 356.227 48.9766C355.711 51.1797 355.266 53.1953 354.891 55.0234C354.562 56.8047 354.352 58.1875 354.258 59.1719C354.117 59.5 353.812 59.8281 353.344 60.1562C352.922 60.4375 352.453 60.6484 351.938 60.7891C351.469 60.9297 350.977 60.9766 350.461 60.9297C349.992 60.8359 349.641 60.5547 349.406 60.0859ZM382.383 59.5938C382.383 56.5469 382.312 53.3359 382.172 49.9609C382.078 46.5859 381.961 43.1875 381.82 39.7656C381.727 36.2969 381.703 32.8984 381.75 29.5703C381.797 26.2422 382.008 23.125 382.383 20.2188C382.477 20.1719 382.688 20.1484 383.016 20.1484C383.391 20.1016 383.648 20.0781 383.789 20.0781C384.445 20.0781 384.961 20.1953 385.336 20.4297C385.758 20.6172 385.969 21.0625 385.969 21.7656C385.969 24.5312 385.945 27.5547 385.898 30.8359C385.898 34.0703 385.875 37.375 385.828 40.75C385.828 44.0781 385.828 47.3828 385.828 50.6641C385.828 53.9453 385.875 56.9219 385.969 59.5938C386.016 60.3906 385.852 60.9062 385.477 61.1406C385.148 61.4219 384.727 61.5625 384.211 61.5625C383.648 61.5625 383.18 61.4219 382.805 61.1406C382.43 60.9062 382.289 60.3906 382.383 59.5938ZM380.836 9.25001C380.836 8.68751 381.023 8.31251 381.398 8.12501C381.773 7.93751 382.195 7.84381 382.664 7.84381C383.602 7.84381 384.188 8.14841 384.422 8.75781C384.656 9.36721 384.773 10.0703 384.773 10.8672C384.492 11.3828 384.141 11.7578 383.719 11.9922C383.297 12.1797 382.852 12.2266 382.383 12.1328C381.961 11.9922 381.586 11.6875 381.258 11.2188C380.977 10.75 380.836 10.0938 380.836 9.25001ZM400.383 61.7031C400.148 60.625 400.219 59.2422 400.594 57.5547C401.016 55.8203 401.602 53.9453 402.352 51.9297C403.102 49.9141 403.969 47.8281 404.953 45.6719C405.984 43.5156 406.969 41.4766 407.906 39.5547C408.891 37.5859 409.758 35.8047 410.508 34.2109C411.258 32.6172 411.773 31.3516 412.055 30.4141C412.055 30.3672 412.055 30.3203 412.055 30.2734C412.102 30.1797 412.125 30.0859 412.125 29.9922C412.125 29.8984 412.102 29.8047 412.055 29.7109C412.055 29.6172 412.055 29.5469 412.055 29.5C410.742 30.0156 409.289 30.6016 407.695 31.2578C406.148 31.8672 404.578 32.4766 402.984 33.0859C401.391 33.6484 399.82 34.1875 398.273 34.7031C396.773 35.1719 395.391 35.5469 394.125 35.8281C393.938 35.9688 393.609 35.9219 393.141 35.6875C392.672 35.4531 392.227 35.1484 391.805 34.7734C391.383 34.3516 391.078 33.9297 390.891 33.5078C390.75 33.0391 390.914 32.6172 391.383 32.2422C392.93 32.2422 394.758 31.9375 396.867 31.3281C398.977 30.6719 401.109 29.9219 403.266 29.0781C405.469 28.2344 407.602 27.4141 409.664 26.6172C411.773 25.7734 413.625 25.1875 415.219 24.8594C416.766 24.8594 417.539 25.6328 417.539 27.1797C417.539 28.8672 417.234 30.5312 416.625 32.1719C416.062 33.7656 415.336 35.3359 414.445 36.8828C413.602 38.4297 412.664 39.9531 411.633 41.4531C410.648 42.9531 409.711 44.4766 408.82 46.0234C407.977 47.5703 407.25 49.1406 406.641 50.7344C406.031 52.3281 405.727 53.9688 405.727 55.6562V56.5L431.461 51.2266H431.953C432.609 51.2266 433.195 51.4375 433.711 51.8594C434.273 52.2344 434.672 52.6797 434.906 53.1953C435.188 53.6641 435.211 54.1562 434.977 54.6719C434.742 55.1875 434.156 55.5625 433.219 55.7969C433.031 55.7969 432.82 55.8203 432.586 55.8672C432.398 55.9141 431.953 56.0078 431.25 56.1484C430.594 56.2422 429.609 56.4062 428.297 56.6406C426.984 56.8281 425.133 57.1328 422.742 57.5547C420.398 57.9766 417.398 58.5391 413.742 59.2422C410.133 59.8984 405.68 60.7188 400.383 61.7031ZM397.359 9.39061C397.359 9.20311 397.453 9.03911 397.641 8.89841C397.828 8.75781 398.32 8.68751 399.117 8.68751C399.211 8.68751 399.352 8.73441 399.539 8.82811C399.773 8.92191 399.938 9.01562 400.031 9.10942L407.695 18.6719H407.977C408.633 18.6719 409.078 18.5547 409.312 18.3203L418.664 9.74221H419.086C419.93 9.74221 420.516 9.95311 420.844 10.375C421.172 10.7969 421.336 11.1719 421.336 11.5C421.336 11.8281 421.242 12.0859 421.055 12.2734C420.914 12.4141 420.398 12.5781 419.508 12.7656L408.469 21.9766C408.422 21.9766 408.352 22 408.258 22.0469C408.211 22.0469 408.164 22.0469 408.117 22.0469C407.648 22.0469 407.18 21.9531 406.711 21.7656C406.289 21.5781 406.031 21.4141 405.938 21.2734L397.43 9.74221C397.383 9.69531 397.359 9.64841 397.359 9.60161V9.39061ZM437.367 7.00001C438.352 6.06251 439.125 5.68751 439.688 5.87501C440.297 6.06251 440.742 6.69531 441.023 7.77341C441.305 8.85161 441.469 10.2578 441.516 11.9922C441.562 13.7266 441.539 15.6953 441.445 17.8984C441.398 20.0547 441.281 22.3516 441.094 24.7891C440.906 27.1797 440.742 29.5469 440.602 31.8906C440.461 34.1875 440.367 36.3906 440.32 38.5C440.273 40.6094 440.344 42.4375 440.531 43.9844H440.742C440.836 43.9844 440.906 43.9609 440.953 43.9141C443.391 41.4766 445.57 38.8984 447.492 36.1797C449.414 33.4609 451.148 30.9062 452.695 28.5156C454.242 26.0781 455.602 23.9688 456.773 22.1875C457.992 20.4062 459.117 19.1875 460.148 18.5312C460.852 18.5312 461.438 18.6484 461.906 18.8828C462.422 19.1172 462.68 19.6562 462.68 20.5C462.68 20.5938 462.656 20.7578 462.609 20.9922C462.609 21.1797 462.609 21.3203 462.609 21.4141C461.438 23.8047 460.148 26.2188 458.742 28.6562C457.336 31.0469 455.812 33.3672 454.172 35.6172C452.531 37.8672 450.75 40 448.828 42.0156C446.953 44.0312 444.914 45.8594 442.711 47.5C442.711 47.5469 442.688 47.6406 442.641 47.7812C442.641 47.875 442.641 47.9453 442.641 47.9922C442.641 48.4609 443.016 48.9766 443.766 49.5391C444.562 50.1016 445.547 50.6406 446.719 51.1562C447.938 51.6719 449.273 52.1875 450.727 52.7031C452.227 53.2188 453.68 53.6641 455.086 54.0391C456.539 54.4141 457.875 54.7188 459.094 54.9531C460.359 55.1875 461.344 55.3047 462.047 55.3047C462.047 55.4922 462.047 55.8438 462.047 56.3594C462.094 56.875 462.07 57.4141 461.977 57.9766C461.883 58.5391 461.719 59.0547 461.484 59.5234C461.25 59.9453 460.875 60.1562 460.359 60.1562H460.078C459.984 60.1562 459.914 60.1328 459.867 60.0859L439.758 52C439.711 54.7656 439.523 57.0156 439.195 58.75C438.867 60.4375 438.469 61.6797 438 62.4766C437.578 63.3203 437.109 63.7188 436.594 63.6719C436.125 63.625 435.703 63.25 435.328 62.5469L437.367 7.00001ZM484.266 60.7188L466.125 31.6797C466.078 31.6328 466.031 31.4688 465.984 31.1875C465.938 30.8594 465.914 30.6016 465.914 30.4141C465.914 29.8047 466.008 29.2891 466.195 28.8672C466.43 28.3984 466.992 28.1641 467.883 28.1641C468.07 28.1641 468.398 28.2812 468.867 28.5156C469.336 28.7031 469.617 28.8906 469.711 29.0781C470.742 30.7188 471.797 32.5469 472.875 34.5625C474 36.5781 475.148 38.5938 476.32 40.6094C477.539 42.625 478.805 44.5703 480.117 46.4453C481.43 48.2734 482.812 49.8438 484.266 51.1562L485.953 23.5938C486 23.5938 486.117 23.5938 486.305 23.5938C486.539 23.5469 486.703 23.5234 486.797 23.5234C487.219 23.5234 487.641 23.5938 488.062 23.7344C488.484 23.8281 488.789 24.1328 488.977 24.6484C489.023 26.3359 489.023 28.4219 488.977 30.9062C488.977 33.3906 488.93 35.9453 488.836 38.5703C488.789 41.1953 488.719 43.7266 488.625 46.1641C488.578 48.5547 488.531 50.4766 488.484 51.9297C488.438 52.8672 488.344 54.2734 488.203 56.1484C488.109 58.0234 487.969 60.1328 487.781 62.4766C487.641 64.8672 487.453 67.375 487.219 70C487.031 72.625 486.844 75.1094 486.656 77.453C486.469 79.797 486.305 81.906 486.164 83.781C486.023 85.703 485.906 87.086 485.812 87.93H482.156L484.266 60.7188Z" fill="black"/>
</g>
<defs>
<clipPath id="clip0">
<rect width="489" height="88" fill="white"/>
</clipPath>
</defs>
</svg>
