<svg width="119" height="33" viewBox="0 0 119 33" fill="none" xmlns="http://www.w3.org/2000/svg">
<path fill-rule="evenodd" clip-rule="evenodd" d="M4.44381 24.4001C4.44381 25.0077 4.24571 25.5376 3.84762 25.988C3.44952 26.4384 2.90476 26.6655 2.22095 26.6655C1.53524 26.6655 0.994286 26.4384 0.596191 25.988C0.2 25.5376 0 25.0077 0 24.4001C0 23.7925 0.2 23.2626 0.596191 22.8122C0.994286 22.3599 1.53524 22.1348 2.22095 22.1348C2.90476 22.1348 3.44952 22.3599 3.84762 22.8122C4.24571 23.2626 4.44381 23.7925 4.44381 24.4001Z" fill="#00A1C5"/>
<path fill-rule="evenodd" clip-rule="evenodd" d="M13.4959 26.5631C11.5949 26.5165 10.2463 26.1011 9.45015 25.3129C8.65396 24.5229 8.25586 23.2961 8.25586 21.6286V0.539647L11.3397 0V21.1219C11.3397 21.6402 11.3835 22.0673 11.4749 22.4051C11.5625 22.7448 11.7054 23.0146 11.9035 23.2165C12.1035 23.4184 12.3701 23.5717 12.6997 23.6726C13.033 23.7736 13.4406 23.859 13.9282 23.9269L13.4959 26.5631Z" fill="#535453"/>
<path fill-rule="evenodd" clip-rule="evenodd" d="M31.9661 17.4371C31.9661 18.8348 31.768 20.0965 31.3699 21.2224C30.9718 22.3502 30.4137 23.3169 29.6937 24.1283C28.9756 24.9398 28.1184 25.5648 27.1242 26.0055C26.1299 26.4442 25.048 26.6635 23.8746 26.6635C22.7013 26.6635 21.6194 26.4442 20.6251 26.0055C19.6289 25.5648 18.7737 24.9398 18.0537 24.1283C17.3356 23.3169 16.7775 22.3502 16.3794 21.2224C15.9813 20.0965 15.7832 18.8348 15.7832 17.4371C15.7832 16.0647 15.9813 14.8068 16.3794 13.6693C16.7775 12.5318 17.3356 11.5573 18.0537 10.7459C18.7737 9.93446 19.6289 9.3094 20.6251 8.87069C21.6194 8.43005 22.7013 8.21069 23.8746 8.21069C25.048 8.21069 26.1299 8.43005 27.1242 8.87069C28.1184 9.3094 28.9756 9.93446 29.6937 10.7459C30.4137 11.5573 30.9718 12.5318 31.3699 13.6693C31.768 14.8068 31.9661 16.0647 31.9661 17.4371ZM28.7508 17.4371C28.7508 15.4552 28.3127 13.8828 27.4384 12.7239C26.568 11.5631 25.3775 10.9827 23.8746 10.9827C22.3718 10.9827 21.1813 11.5631 20.3108 12.7239C19.4346 13.8828 19.0003 15.4552 19.0003 17.4371C19.0003 19.421 19.4346 20.9914 20.3108 22.1522C21.1813 23.313 22.3718 23.8935 23.8746 23.8935C25.3775 23.8935 26.568 23.313 27.4384 22.1522C28.3127 20.9914 28.7508 19.421 28.7508 17.4371Z" fill="#535453"/>
<path fill-rule="evenodd" clip-rule="evenodd" d="M46.4902 24.4673C46.2273 24.6478 45.713 24.8788 44.9492 25.1603C44.1854 25.4417 43.2959 25.5815 42.2807 25.5815C41.2388 25.5815 40.2616 25.4146 39.3454 25.0748C38.4273 24.7371 37.6254 24.2149 36.9416 23.5044C36.254 22.794 35.713 21.9107 35.3149 20.8508C34.9168 19.7929 34.7188 18.5311 34.7188 17.0655C34.7188 15.7824 34.9054 14.6041 35.2826 13.5345C35.6578 12.465 36.2064 11.541 36.9226 10.7645C37.6426 9.98608 38.5207 9.37849 39.5607 8.93784C40.5987 8.49914 41.7721 8.27979 43.0749 8.27979C44.513 8.27979 45.7664 8.38655 46.8387 8.60008C47.9111 8.81361 48.8121 9.01161 49.5416 9.19214V24.873C49.5416 27.577 48.8559 29.5376 47.4845 30.7528C46.1149 31.9699 44.0388 32.5775 41.2502 32.5775C40.1683 32.5775 39.1454 32.4882 38.1835 32.3077C37.2235 32.1271 36.3892 31.9136 35.6807 31.6651L36.2445 28.9281C36.8635 29.1766 37.6216 29.3959 38.5168 29.5881C39.4121 29.7783 40.3435 29.8754 41.3187 29.8754C43.153 29.8754 44.473 29.5027 45.2807 28.7592C46.0883 28.0157 46.4902 26.8335 46.4902 25.2107V24.4673ZM46.4578 11.4226C46.1473 11.3333 45.734 11.2478 45.214 11.1683C44.6959 11.0906 43.9911 11.0498 43.1092 11.0498C41.4502 11.0498 40.1721 11.6031 39.2768 12.7057C38.3816 13.8102 37.9359 15.2738 37.9359 17.1005C37.9359 18.1138 38.0635 18.9815 38.3168 19.7017C38.5702 20.4238 38.9149 21.0217 39.3454 21.4934C39.7759 21.967 40.273 22.3164 40.8368 22.5416C41.4007 22.7668 41.9816 22.8794 42.5778 22.8794C43.3949 22.8794 44.1473 22.761 44.833 22.5241C45.5187 22.2873 46.0597 22.0117 46.4578 21.6972V11.4226Z" fill="#535453"/>
<path fill-rule="evenodd" clip-rule="evenodd" d="M59.7883 8.21191C61.0264 8.21191 62.0721 8.37497 62.9236 8.70303C63.7731 9.02915 64.4588 9.49115 64.9788 10.0871C65.4969 10.685 65.8702 11.3935 66.0893 12.2166C66.3121 13.0396 66.4226 13.9461 66.4226 14.9381V25.9213C66.156 25.9659 65.7864 26.028 65.3102 26.1076C64.836 26.1853 64.2988 26.259 63.7026 26.327C63.1045 26.393 62.4569 26.4551 61.7617 26.5133C61.0645 26.5677 60.3731 26.5968 59.6893 26.5968C58.7179 26.5968 57.8226 26.4939 57.0036 26.292C56.1845 26.0901 55.4798 25.7679 54.8817 25.3292C54.2855 24.8886 53.8207 24.3101 53.4874 23.5899C53.1559 22.8678 52.9902 22.0001 52.9902 20.9868C52.9902 20.0181 53.1845 19.1854 53.5712 18.4846C53.9559 17.7877 54.4836 17.2248 55.1464 16.7958C55.8093 16.3687 56.5826 16.0523 57.4683 15.8504C58.3521 15.6466 59.2798 15.5457 60.2531 15.5457C60.5636 15.5457 60.8817 15.5631 61.215 15.5961C61.5464 15.6291 61.8607 15.6757 62.1598 15.7301C62.4569 15.7883 62.7198 15.8388 62.9388 15.8834C63.1617 15.9281 63.3159 15.963 63.4036 15.9844V15.107C63.4036 14.5867 63.3483 14.0743 63.2379 13.5676C63.1255 13.061 62.9274 12.6106 62.6398 12.2166C62.354 11.8225 61.9598 11.5061 61.4626 11.2712C60.9655 11.0344 60.3198 10.916 59.5255 10.916C58.5064 10.916 57.6169 10.9897 56.855 11.1353C56.0912 11.2809 55.5236 11.4343 55.1464 11.5915L54.7826 8.98838C55.1807 8.8098 55.8417 8.63315 56.7712 8.46621C57.6988 8.29733 58.7064 8.21191 59.7883 8.21191ZM60.055 23.9607C60.7826 23.9607 61.4302 23.9432 61.9959 23.9102C62.5579 23.8753 63.0264 23.8151 63.4036 23.7239V18.4846C63.1826 18.374 62.8226 18.2789 62.3255 18.1973C61.8283 18.1197 61.2245 18.0809 60.5198 18.0809C60.055 18.0809 59.5617 18.1139 59.0436 18.1818C58.5236 18.2478 58.0493 18.3895 57.6169 18.603C57.1864 18.8185 56.8245 19.1116 56.5388 19.4824C56.2512 19.8531 56.1083 20.3443 56.1083 20.9519C56.1083 22.0797 56.4626 22.862 57.1693 23.3026C57.8779 23.7413 58.8379 23.9607 60.055 23.9607Z" fill="#535453"/>
<path fill-rule="evenodd" clip-rule="evenodd" d="M70.8984 9.15792C71.607 8.97739 72.5403 8.78521 73.7003 8.58333C74.8603 8.37951 76.2051 8.27856 77.7289 8.27856C78.8356 8.27856 79.7632 8.42998 80.5137 8.73474C81.2661 9.03951 81.8984 9.48404 82.4051 10.0703C82.5594 9.95768 82.8051 9.79851 83.1346 9.59662C83.4661 9.39474 83.8756 9.19674 84.3613 9.00651C84.847 8.81433 85.3899 8.64545 85.988 8.49986C86.5842 8.35233 87.2242 8.27856 87.9099 8.27856C89.2375 8.27856 90.3194 8.47656 91.1594 8.87062C91.9994 9.26468 92.6584 9.82374 93.1327 10.5439C93.6089 11.2641 93.9289 12.1202 94.0946 13.1121C94.2622 14.104 94.3422 15.1853 94.3422 16.3558V26.2247H91.2584V17.0313C91.2584 15.9947 91.2108 15.1057 91.1118 14.3622C91.0108 13.6187 90.8222 12.9995 90.5461 12.5026C90.2699 12.0076 89.8946 11.6426 89.4203 11.4039C88.9442 11.169 88.3308 11.0506 87.5784 11.0506C86.5403 11.0506 85.6813 11.1923 85.0089 11.4737C84.3327 11.7552 83.8756 12.0076 83.6318 12.2327C83.8089 12.819 83.9422 13.4615 84.0299 14.1584C84.1175 14.8592 84.1632 15.591 84.1632 16.3558V26.2247H81.0794V17.0313C81.0794 15.9947 81.0241 15.1057 80.9118 14.3622C80.8013 13.6187 80.6089 12.9995 80.3308 12.5026C80.0565 12.0076 79.6794 11.6426 79.2051 11.4039C78.7289 11.169 78.127 11.0506 77.3994 11.0506C77.0889 11.0506 76.7556 11.0622 76.4032 11.0836C76.0508 11.1069 75.7118 11.134 75.3899 11.169C75.0718 11.202 74.7784 11.2408 74.5137 11.2874C74.247 11.332 74.0699 11.365 73.9822 11.3883V26.2247H70.8984V9.15792Z" fill="#535453"/>
<path fill-rule="evenodd" clip-rule="evenodd" d="M98.8184 26.2239H101.902V8.65039H98.8184V26.2239Z" fill="#535453"/>
<path fill-rule="evenodd" clip-rule="evenodd" d="M114.074 26.6305C112.682 26.6305 111.461 26.4054 110.41 25.955C109.36 25.5046 108.474 24.8738 107.756 24.0624C107.038 23.2509 106.501 22.2881 106.149 21.1739C105.796 20.0577 105.617 18.8251 105.617 17.4721C105.617 16.121 105.811 14.8806 106.198 13.7547C106.585 12.6269 107.131 11.6544 107.84 10.8313C108.547 10.0082 109.415 9.36765 110.442 8.90565C111.471 8.44365 112.615 8.21265 113.876 8.21265C114.648 8.21265 115.423 8.27865 116.196 8.41453C116.97 8.55041 117.711 8.76394 118.419 9.05706L117.722 11.7281C117.257 11.5029 116.72 11.3224 116.112 11.1865C115.507 11.0506 114.859 10.9827 114.173 10.9827C112.448 10.9827 111.128 11.5359 110.211 12.6385C109.293 13.7431 108.834 15.3542 108.834 17.4721C108.834 18.4194 108.939 19.2871 109.149 20.0752C109.36 20.8633 109.691 21.5388 110.145 22.1018C110.598 22.6647 111.179 23.0995 111.886 23.4043C112.592 23.7071 113.455 23.8605 114.472 23.8605C115.29 23.8605 116.031 23.7809 116.693 23.6217C117.356 23.4664 117.878 23.2956 118.251 23.1151L118.684 25.7531C118.507 25.8638 118.251 25.9725 117.922 26.0734C117.589 26.1744 117.213 26.2636 116.792 26.3432C116.373 26.4228 115.926 26.4888 115.451 26.5451C114.973 26.6014 114.516 26.6305 114.074 26.6305Z" fill="#535453"/>
</svg>
