<svg width="512" height="512" viewBox="0 0 512 512" fill="none" xmlns="http://www.w3.org/2000/svg">
<g clip-path="url(#clip0)">
<rect width="512" height="512" fill="black"/>
<path d="M172.347 368.72C156.021 368.72 141.864 365.62 129.877 359.42C118.097 353.013 109.004 344.437 102.597 333.69C96.1905 322.737 92.9872 310.647 92.9872 297.42V205.97H141.037V296.18C141.037 301.76 142.381 306.927 145.067 311.68C147.754 316.227 151.371 319.947 155.917 322.84C160.671 325.527 166.044 326.87 172.037 326.87C177.824 326.87 182.991 325.527 187.537 322.84C192.291 319.947 196.011 316.227 198.697 311.68C201.384 306.927 202.727 301.76 202.727 296.18V205.97H250.777V297.42C250.777 310.647 247.677 322.737 241.477 333.69C235.277 344.437 226.287 353.013 214.507 359.42C202.934 365.62 188.881 368.72 172.347 368.72ZM341.297 202.25C324.144 202.25 309.161 205.763 296.347 212.79C283.534 219.817 273.614 229.84 266.587 242.86C259.561 255.88 256.047 271.07 256.047 288.43V432.27H304.097V347.64H305.027C308.127 351.98 311.951 355.803 316.497 359.11C321.251 362.21 326.417 364.587 331.997 366.24C337.784 367.893 343.881 368.72 350.287 368.72C365.374 368.72 378.601 365.31 389.967 358.49C401.334 351.67 410.221 342.267 416.627 330.28C423.241 318.293 426.547 304.24 426.547 288.12C426.547 275.72 424.584 264.25 420.657 253.71C416.731 243.17 411.047 234.077 403.607 226.43C396.374 218.577 387.487 212.583 376.947 208.45C366.614 204.317 354.731 202.25 341.297 202.25ZM341.297 243.79C348.737 243.79 355.144 245.65 360.517 249.37C365.891 252.883 370.024 257.843 372.917 264.25C376.017 270.45 377.567 277.477 377.567 285.33C377.567 293.183 376.017 300.21 372.917 306.41C370.024 312.61 365.891 317.57 360.517 321.29C355.144 324.803 348.737 326.56 341.297 326.56C333.857 326.56 327.347 324.803 321.767 321.29C316.394 317.57 312.261 312.61 309.367 306.41C306.474 300.21 305.027 293.183 305.027 285.33C305.027 277.477 306.474 270.45 309.367 264.25C312.261 257.843 316.394 252.883 321.767 249.37C327.347 245.65 333.857 243.79 341.297 243.79Z" fill="white"/>
</g>
<defs>
<clipPath id="clip0">
<rect width="512" height="512" fill="white"/>
</clipPath>
</defs>
</svg>
