<svg width="2906" height="2250" viewBox="0 0 2906 2250" fill="none" xmlns="http://www.w3.org/2000/svg">
<path fill-rule="evenodd" clip-rule="evenodd" d="M2608 1482H416C264.674 1482 142 1620.12 142 1790.5C142 1960.88 264.674 2099 416 2099H2608V1944.75C2607.88 1944.75 2607.76 1944.75 2607.63 1944.75C2538.66 1944.75 2482.75 1875.69 2482.75 1790.5C2482.75 1705.31 2538.66 1636.25 2607.63 1636.25C2607.76 1636.25 2607.88 1636.25 2608 1636.25V1482Z" fill="black"/>
<path fill-rule="evenodd" clip-rule="evenodd" d="M2392 1636.25H1529.6C1453.6 1636.25 1392 1705.31 1392 1790.5C1392 1875.69 1453.6 1944.75 1529.6 1944.75H2392C2368.58 1899.37 2355.18 1846.69 2355.18 1790.5C2355.18 1734.31 2368.58 1681.63 2392 1636.25Z" fill="white"/>
<path fill-rule="evenodd" clip-rule="evenodd" d="M1267 1636.25H404.598C328.605 1636.25 267 1705.31 267 1790.5C267 1875.69 328.605 1944.75 404.598 1944.75H1267C1243.58 1899.37 1230.18 1846.69 1230.18 1790.5C1230.18 1734.31 1243.58 1681.63 1267 1636.25Z" fill="#FFD401"/>
<path fill-rule="evenodd" clip-rule="evenodd" d="M267 757H2500.78C2654.99 757 2780 919.297 2780 1119.5C2780 1319.7 2654.99 1482 2500.78 1482H267V1300.75C267.124 1300.75 267.248 1300.75 267.372 1300.75C337.659 1300.75 394.639 1219.6 394.639 1119.5C394.639 1019.4 337.659 938.25 267.372 938.25C267.248 938.25 267.124 938.25 267 938.251V757Z" fill="black"/>
<path fill-rule="evenodd" clip-rule="evenodd" d="M511 938.25H1369.24C1444.87 938.25 1506.18 1019.4 1506.18 1119.5C1506.18 1219.6 1444.87 1300.75 1369.24 1300.75H511C534.302 1247.43 547.639 1185.53 547.639 1119.5C547.639 1053.47 534.302 991.569 511 938.25Z" fill="white"/>
<path fill-rule="evenodd" clip-rule="evenodd" d="M1633.56 938.25H2473.92C2547.97 938.25 2608 1019.4 2608 1119.5C2608 1219.6 2547.97 1300.75 2473.92 1300.75H1633.56C1656.38 1247.43 1669.43 1185.53 1669.43 1119.5C1669.43 1053.47 1656.38 991.569 1633.56 938.25Z" fill="#0194FF"/>
<path fill-rule="evenodd" clip-rule="evenodd" d="M596 757H2424.44C2550.67 757 2653 620.671 2653 452.5C2653 284.329 2550.67 148 2424.44 148H596V300.251C596.102 300.25 596.203 300.25 596.304 300.25C653.838 300.25 700.478 368.415 700.478 452.5C700.478 536.585 653.838 604.75 596.304 604.75C596.203 604.75 596.102 604.75 596 604.749V757Z" fill="black"/>
<path fill-rule="evenodd" clip-rule="evenodd" d="M785 604.75H1496.76C1559.48 604.75 1610.32 536.585 1610.32 452.5C1610.32 368.415 1559.48 300.25 1496.76 300.25H785C804.325 345.038 815.385 397.037 815.385 452.5C815.385 507.963 804.325 559.962 785 604.75Z" fill="white"/>
<path fill-rule="evenodd" clip-rule="evenodd" d="M1714.59 604.75H2396.24C2456.31 604.75 2505 536.585 2505 452.5C2505 368.415 2456.31 300.25 2396.24 300.25H1714.59C1733.1 345.038 1743.69 397.037 1743.69 452.5C1743.69 507.963 1733.1 559.962 1714.59 604.75Z" fill="#FF0101"/>
</svg>
