<?xml version="1.0" standalone="no"?>
<!DOCTYPE svg PUBLIC "-//W3C//DTD SVG 20010904//EN"
 "http://www.w3.org/TR/2001/REC-SVG-20010904/DTD/svg10.dtd">
<svg version="1.0" xmlns="http://www.w3.org/2000/svg"
 width="512.000000pt" height="512.000000pt" viewBox="0 0 512.000000 512.000000"
 preserveAspectRatio="xMidYMid meet">
<metadata>
Created by potrace 1.11, written by Peter Selinger 2001-2013
</metadata>
<g transform="translate(0.000000,512.000000) scale(0.100000,-0.100000)"
fill="#000000" stroke="none">
<path d="M0 2560 l0 -2560 2560 0 2560 0 0 2560 0 2560 -2560 0 -2560 0 0
-2560z m3550 529 c96 -11 243 -57 310 -96 284 -164 439 -496 400 -855 -42
-388 -288 -651 -654 -699 -205 -27 -402 33 -515 157 -23 24 -44 44 -46 44 -3
0 -5 -189 -5 -420 l0 -420 -240 0 -241 0 4 803 c3 793 3 803 25 887 112 424
488 659 962 599z m-2138 -521 l3 -493 34 -63 c60 -111 138 -156 271 -156 73 0
92 4 135 26 64 34 118 90 147 153 23 50 23 53 26 538 l3 487 239 0 240 0 0
-482 c0 -289 -4 -509 -11 -548 -53 -329 -295 -548 -654 -590 -58 -7 -138 -9
-192 -6 -348 26 -592 199 -691 491 l-27 80 -3 528 -3 527 240 0 240 0 3 -492z"/>
<path d="M3303 2666 c-121 -39 -205 -137 -238 -278 -48 -204 26 -411 176 -493
47 -25 67 -30 151 -33 121 -5 178 12 248 74 207 187 165 587 -75 712 -61 31
-193 41 -262 18z"/>
</g>
</svg>
